<?xml version="1.0" encoding="utf-8"?>
<!-- Generator: Adobe Illustrator 23.0.0, SVG Export Plug-In . SVG Version: 6.00 Build 0)  -->
<svg version="1.1" id="Camada_1" xmlns="http://www.w3.org/2000/svg" xmlns:xlink="http://www.w3.org/1999/xlink" x="0px" y="0px"
	 viewBox="0 0 1000 927.2" style="enable-background:new 0 0 1000 927.2;" xml:space="preserve">
<style type="text/css">
	.st0{fill:#0222A9;}
	.st1{fill:#011DA9;}
	.st2{fill:#069330;}
	.st3{fill:#FE2015;}
	.st4{fill:#FFC001;}
	.st5{fill:#0124A6;}
	.st6{fill:#FF2D1E;}
</style>
<g transform="matrix(2.4919039,0,0,2.4919039,0,0)">
	<path class="st0" d="M223.4,165.3l8.8-10V87.7l-42,16.2l0,0l-34.8,62l34.8-13.4L223.4,165.3z"/>
	<path class="st1" d="M298,259.6V145.5l42.6-16.4v179.5l-42.6,18l0,0l-62.6-81.9v108.3l-45.2,19V187.1l45.2-17.2L298,259.6z"/>
	<path class="st0" d="M122.3,308.8l-40-77.7v95.5l0,0L122.3,308.8z"/>
	<path class="st2" d="M124.9,129.1L124.9,129.1l20,40.8l10.4-4l34.8-62l-42-16.4L124.9,129.1z"/>
	<path class="st2" d="M223.4,165.3L223.4,165.3l32-36.2l42.6,16.4v114.1l-62.6-89.7L223.4,165.3z"/>
	<path class="st2" d="M190.1,372.1V187.1l-45.2-17.2v93.9L82.1,145.5l0,0l-42.6-16.4v179.5l42.6,18v-95.5l62.8,121.9L190.1,372.1z"
		/>
	<path class="st3" d="M82.3,145.5l42.6-16.4l20,40.8l0,0v93.9L82.3,145.5z"/>
	<path class="st3" d="M235.4,289.4l12.8,18l49.8,19.2l0,0l-62.6-81.9L235.4,289.4z"/>
	<path class="st4" d="M145.1,169.9l45.2-17.2l45.2,17.2l0,0l-45.2,17.2L145.1,169.9z"/>
	<path class="st4" d="M298,112.7l42.6,16.4L298,145.5l-42.6-16.4l0,0L298,112.7z"/>
	<path class="st4" d="M82.3,112.7l42.6,16.4l-42.6,16.4l-42.6-16.4l0,0L82.3,112.7z"/>
	<path class="st4" d="M190.1,71.3l-42,16.2l42,16.4l42-16.2l0,0L190.1,71.3z"/>
	<path class="st5" d="M250.6,13.2H270c16.6,0,21.8,9.4,21.8,22.2c0,13.2-8.2,21.4-20.8,21.4h-20.4V13.2
		C250.6,13.2,250.6,13.2,250.6,13.2z M266.6,47h1.6c2.6,0,4.4-0.8,5.4-2.6c1-1.8,1.2-5.2,1.2-9.4s-0.2-7.6-1.2-9.4
		c-1-1.8-2.8-2.6-5.4-2.6h-1.6v23.8l0,0V47z"/>
	<path class="st5" d="M317.4,12c14.2,0,21.4,9.4,21.4,23s-7,23-21.4,23c-14.2,0-21.4-9.4-21.4-23S303,12,317.4,12L317.4,12z
		 M317.4,46.8c2.6,0,4.4-1.2,4.4-12c0-10.4-1.8-12-4.4-12s-4.4,1.4-4.4,12C313,45.4,314.8,46.8,317.4,46.8L317.4,46.8z"/>
	<path class="st5" d="M346.5,47.6c-2.8,0-5.2,2.4-5.2,5.2s2.4,5.2,5.2,5.2c2.8,0,5.2-2.4,5.2-5.2S349.3,47.6,346.5,47.6L346.5,47.6z
		 M346.5,57c-2.4,0-4.2-2-4.2-4.2c0-2.4,2-4.2,4.2-4.2c2.4,0,4.2,2,4.2,4.2C350.7,55.2,348.7,57,346.5,57L346.5,57z"/>
	<path class="st5" d="M345.7,55.6h-1.2V50h2.4c1,0,2,0.4,2,1.4c0,0.8-0.4,1.2-1.2,1.4l0,0c1,0.2,1,0.6,1,1.4c0,0.4,0.2,1,0.4,1.4
		h-1.4c-0.2-0.6-0.2-1-0.2-1.6c0-0.4-0.2-0.8-0.6-0.8h-1.2v2.2l0,0L345.7,55.6z M345.7,52.4h1c0.6,0,0.8-0.2,0.8-0.8
		c0-0.6-0.4-0.8-0.8-0.8h-1V52.4L345.7,52.4z"/>
	<path class="st5" d="M28.6,13.2v25h-0.2l-8.8-25H0v43.6h13.2V31.6h0.2l8.8,25.2l0,0h19.6V13.2L28.6,13.2z"/>
	<path class="st5" d="M102.7,13.2v25h-0.2l-8.8-25H74.1v43.6h13.2V31.6h0.2l8.8,25.2l0,0h19.6V13.2L102.7,13.2z"/>
	<path class="st5" d="M230.2,13.2v25H230l-8.8-25h-19.6v43.6h13.2V31.6h0.2l8.8,25.2l0,0h19.6V13.2L230.2,13.2z"/>
	<path class="st5" d="M66.2,13.2v43.6H49.8V13.2l0,0L66.2,13.2z"/>
	<path class="st5" d="M131.1,56.8V25l0,0h-10.4V13.2h37.2V25h-10.4v31.8H131.1z"/>
	<path class="st5" d="M178.9,24.8v4.6h15v11.2h-15v4.8h16.8v11.4h-32.8V13.2l0,0h32.4v11.6L178.9,24.8z"/>
	<path class="st6" d="M368.3,7.4c-0.8,0-1.8,0-3,0c-7,0.4-9.6,3.2-10.6,6.6h0.2c1.8-1.6,3.8-2.2,6.6-2.2c5.4,0,10.4,4,10.4,11.4
		c0,7.2-5.4,12.8-12.8,12.8c-9.8,0-14-7.4-14-15.4c0-6.4,2.2-12,6-15.4c3.6-3.4,8.2-5,13.8-5.2c1.4,0,2.4,0,3.2,0v7.4h0L368.3,7.4z
		 M359.1,29c2.2,0,3.6-2.2,3.6-5.2c0-2.4-1.2-5.2-4.2-5.2c-1.8,0-3.2,1.2-3.8,2.6c-0.2,0.4-0.2,1-0.2,2C354.7,26,356.1,29,359.1,29
		L359.1,29L359.1,29z"/>
	<path class="st6" d="M389.1,35.4v-7.8h-14.6v-6.2l11.6-20.8h11.6v20h3.6v7.2h-3.6v7.8h-8.8l0,0L389.1,35.4z M389.1,20.4v-6
		c0-2.2,0.2-4.6,0.2-7h-0.2c-1,2.4-2,4.6-3.2,7l-2.8,5.8v0.2H389.1L389.1,20.4L389.1,20.4z"/>
</g>
</svg>
